<svg id="50f17667-05ac-401b-85bd-2ba67560b160" data-name="Layer 1" xmlns="http://www.w3.org/2000/svg" viewBox="0 0 2128.19 644.25"><defs><style>.\35 32ec781-1a18-4000-8992-b6483c0f95db{fill:#fdfdfc;}.\39 f280f5c-d066-4124-a079-fe24dd511543{fill:#54a746;}.d591fda9-c5f2-42e4-acbf-ead9afc7cf22{fill:#71bf44;}.\39 fc18bf7-8916-46f0-b154-f4ed29120015{fill:#132213;}.\38 309d6bb-d669-42bc-837e-b101ddd6e6b2{fill:#fff;}.ee409d0e-a6d6-43cb-8fbf-3840abdc2ba2{fill:#fbcf40;}.d26c0b49-4962-42e6-ae7a-c880cd2f9248{fill:#83857d;}.c98e8619-171b-4703-9416-9fcc9e780cd6{fill:#ffdb7a;}.\39 f82bb38-e3d6-4c05-9004-1061fd236750{fill:#9dc83c;}.\38 d3dd38d-dc36-4c99-8189-53309fe33579{fill:#94ca59;}.\38 59224f6-1d1d-44d1-8adf-f569ddbea050{fill:#8ec078;}.\30 4136b94-889a-4b2d-8294-0ded0992a46c{fill:#8cc76f;}.\33 06a14dd-2987-4832-8fdd-0a8065322dd0{fill:#9ecd58;}.\35 6a2a4c9-0dcf-447d-a4b6-5345ab4a93a7{fill:#ffd042;}</style></defs><title>kryptooooo-wide</title><path class="532ec781-1a18-4000-8992-b6483c0f95db" d="M2129,341q0,149.46.1,298.93c0,4-.6,5.2-5,5.2Q1220.54,644.93,317,645c.49-2.86,2.95-2.18,4.68-2.41C343,639.7,364,635.23,384.37,628c35-12.38,66.54-30.38,94.4-55a292.3,292.3,0,0,0,71.72-95.1,288.79,288.79,0,0,0,27-138.87c-1.42-25-6-49.58-12.62-73.75-12.89-47.07-31-92.2-50.94-136.62-10.59-23.55-21.4-47-34.28-69.42-6.82-11.87-14.22-23.36-23.55-33.44A44.18,44.18,0,0,0,441.6,15.34c-8.89-4-16.95-1.56-24.59,3.4a56.39,56.39,0,0,0-12.79,11.84c-1.16,1.42-2.19,3-3.88,3.83-1.8.67-3.22-.24-4.64-1.13-1-.62-1.89-1.35-2.83-2-17-12.44-32.7-12.06-48.5,1.86a283.62,283.62,0,0,1-45.55,32.2,14.38,14.38,0,0,1-4.08,1.84c-9.12.25-18.22,1-27.34.51-2.27-1.88-1.68-4.53-1.77-6.95-.29-8,.3-15.92-.8-23.89A92.44,92.44,0,0,0,258,13.43a18.35,18.35,0,0,0-8.3-9C248.25,3.63,246,3.44,246,1Q1185,1,2124.07.87c4.43,0,5,1.16,5,5.2q-.19,157-.1,313.93c-2.86-.52-2.12-2.93-2.36-4.7-2.83-20.86-9.53-40.06-23.13-56.57-14.62-17.74-33.33-29-55.25-34.91-33.68-9-67.06-8.06-99.24,6.13-31,13.65-50.45,37.41-58.35,70.33a124,124,0,0,0,1.87,66.12c7.72,25.3,23,44.81,45.82,58.24,20.17,11.87,42.27,16.55,65.46,17.06,20.59.45,40.58-2.54,59.51-10.73,30.23-13.07,50.29-35.36,59.34-67.23a158.2,158.2,0,0,0,3.86-18.57C2126.79,343.6,2126.29,341.26,2129,341Z" transform="translate(-0.9 -0.87)"/><path class="9f280f5c-d066-4124-a079-fe24dd511543" d="M399.38,34.43c4.53-5.56,9.12-11,14.91-15.38,12.86-9.64,24.92-9.38,37.27.85,8.32,6.89,14.63,15.47,20.42,24.45,17.72,27.5,31.23,57.19,44.51,87,19.6,43.91,37.48,88.47,50,135,9.27,34.44,14.39,69.41,12.28,105.11-3.45,58.43-22.68,111.31-57.92,158.09-43.93,58.33-102.11,94.56-173.27,110.19a237.92,237.92,0,0,1-28.1,4.27c-.91.09-2.07-.3-2.49,1h-5a5.41,5.41,0,0,0-5,0H275a7.64,7.64,0,0,0-6,0h-4c-11.37-1.16-22.75-2-34-4.49-46.17-10.19-88.25-28.75-124.32-59.85a15.07,15.07,0,0,1-3.89-4.5c-2-3.68-5.17-6.48-7.41-10C87,553,90.46,542.06,105,536.15c9-3.69,18.59-5.3,28.2-6.32,19.52-2.08,39.16-2.78,58.72-4.34,24.88-2,49.75-3.94,73.92-11.23,41.25-12.44,67.89-38.7,78.61-80.7,4.14-16.2,6.12-32.71,7.25-49.35.43-6.31,1.26-12.59.93-18.94-.09-2.84-.12-5.67-.12-8.5.07-40.14-3.44-80.23-1.94-120.37,1.82-48.5,5.53-96.8,19-143.78q1.79-6.25,4-12.35c3.72-8.85,7.06-17.88,11.6-26.4,3-5.59,6.7-10.68,10.15-15.95A8.9,8.9,0,0,1,399.38,34.43Z" transform="translate(-0.9 -0.87)"/><path class="d591fda9-c5f2-42e4-acbf-ead9afc7cf22" d="M353.94,365.91c-.91,28.56-3,56.95-13.39,84-11.66,30.4-33.39,50.6-63.62,62-17.79,6.72-36.23,10.29-55.11,12.18-17.3,1.74-34.64,2.89-52,4.11-17.79,1.26-35.72,1.75-53.23,5.79a61.29,61.29,0,0,0-15.89,5.69c-9,4.93-11.14,14.42-5.28,24,2,3.23,3.89,6.61,6.83,9.17a3.85,3.85,0,0,1,1.66,3.45c-2.29.44-3.76-1-5.25-2.33A295.52,295.52,0,0,1,3.17,401.2C1.8,392.84,2.09,384.37,1,376v-4a10.23,10.23,0,0,0,0-7V339a13,13,0,0,0,0-8v-2c1.12-2.27.11-4.74.67-7.06,1-15.81,5-31.06,9-46.29A299.39,299.39,0,0,1,26.19,234c18.13-40.3,41.11-77.71,68-112.71,12.29-16,25.49-31.17,39.06-46.1a444.87,444.87,0,0,1,50.32-47,182.56,182.56,0,0,1,36.17-23C224.66,2.86,229.8,1.94,235,1h11c13.68,4.66,15.9,17.07,18.91,28.63,3.16,12.19,2.09,24.77,2.18,37.22,1.77,2.35,1.44,5.11,1.23,7.71-1.11,13.41-2.07,26.84-3.24,40.25-2.34,27-3.81,54-1.84,81.16,2.31,31.83,11.37,61.77,25.07,90.33,7.81,16.28,18.77,30.57,30.58,44.22,9.83,11.36,20.74,21.57,31.92,31.55A15.12,15.12,0,0,1,353.94,365.91Z" transform="translate(-0.9 -0.87)"/><path class="9fc18bf7-8916-46f0-b154-f4ed29120015" d="M2129,341c-2.29,4.31-1.79,9.19-2.76,13.77-9.62,45.42-38,72.86-82.14,83.92-31.7,7.93-63.47,6.58-93.83-6.62-37.72-16.4-58.27-45.85-63.32-86.41-2.64-21.18-.59-41.88,7.46-61.7,10-24.63,27.09-43.16,51.35-53.93,41.78-18.56,84.17-18.66,125.28,1.37,35.11,17.11,52.87,47.18,56.95,85.65.11,1-.63,2.42,1,2.95v2a50.84,50.84,0,0,0,0,16Z" transform="translate(-0.9 -0.87)"/><path class="8309d6bb-d669-42bc-837e-b101ddd6e6b2" d="M235,1c-30.09,9-53.27,28.69-75.34,49.63-59.36,56.31-106.22,121.52-138,197.21-3.66,8.72-6.5,17.78-9.71,26.68a215.28,215.28,0,0,0-9,38.15c-.23,1.53.55,3.75-2,4.33Q1,161,.9,5C.9,1.58,1.58.9,5,.9Q120,1.09,235,1Z" transform="translate(-0.9 -0.87)"/><path class="8309d6bb-d669-42bc-837e-b101ddd6e6b2" d="M1,376c2,6.47,1.89,13.27,2.84,19.9a291.09,291.09,0,0,0,98.43,179.26,15,15,0,0,0,1.65,1.09c22.54,20.91,48.62,36.14,77,47.61A289.37,289.37,0,0,0,263,644c.8.07,1.69,0,2,1q-130,0-260,.1c-3.42,0-4.1-.67-4.1-4.1Q1.09,508.5,1,376Z" transform="translate(-0.9 -0.87)"/><path class="ee409d0e-a6d6-43cb-8fbf-3840abdc2ba2" d="M1,317c2.46-6.53,2.17-13.59,4-20.26,2-7.51,3.36-15.23,7-22.22C9.86,284,7.61,293.4,5.63,302.89c-1.34,6.41-2.31,12.89-3.45,19.34-1-.43-.4-1.69-1.17-2.23Z" transform="translate(-0.9 -0.87)"/><path class="d26c0b49-4962-42e6-ae7a-c880cd2f9248" d="M2129,338a26.69,26.69,0,0,1,0-16Z" transform="translate(-0.9 -0.87)"/><path class="c98e8619-171b-4703-9416-9fcc9e780cd6" d="M1,320c1,.41,1,1.38,1.17,2.23C1.68,324.47,2.92,327,1,329Z" transform="translate(-0.9 -0.87)"/><path class="9f82bb38-e3d6-4c05-9004-1061fd236750" d="M1,331a7.52,7.52,0,0,1,0,8Z" transform="translate(-0.9 -0.87)"/><path class="8d3dd38d-dc36-4c99-8189-53309fe33579" d="M1,365c1.5,2.33,1.67,4.67,0,7Z" transform="translate(-0.9 -0.87)"/><path class="859224f6-1d1d-44d1-8adf-f569ddbea050" d="M269,645c2-1.81,4-1.26,6,0Z" transform="translate(-0.9 -0.87)"/><path class="04136b94-889a-4b2d-8294-0ded0992a46c" d="M307,645c1.67-1.27,3.33-1.63,5,0Z" transform="translate(-0.9 -0.87)"/><path class="9fc18bf7-8916-46f0-b154-f4ed29120015" d="M787,274.12c20.72-23.11,40.61-45.28,60.49-67.46q22.51-25.12,45-50.28c1.25-1.4,2.38-2.44,4.54-2.43,28,.08,55.93.06,84.87.06-4.11,4.64-7.67,8.69-11.27,12.69Q924.52,218,878.34,269.22c-2.53,2.8-2.4,4.55-.39,7.54q54.28,80.41,108.34,161c.54.81,1.08,1.63,1.61,2.42-.87,1.47-2.17.8-3.18.81-27.49,0-55,0-82.47.12-3.12,0-4.68-1.16-6.3-3.58-23-34.4-46.2-68.72-69.2-103.14-2.19-3.27-3.33-3.83-6.18-.56-10.19,11.67-20.65,23.1-31.09,34.54a9.05,9.05,0,0,0-2.53,6.66c.1,20.49-.05,41,.16,61.48,0,3.74-.88,4.64-4.61,4.61q-33.24-.3-66.48,0c-3.28,0-4.08-.86-4.08-4.1q.14-139.46,0-278.91c0-3.85,1.4-4.14,4.56-4.13,22,.12,44,.16,66,0,3.65,0,4.67.74,4.65,4.56-.17,36.49-.1,73-.1,109.47Z" transform="translate(-0.9 -0.87)"/><path class="9fc18bf7-8916-46f0-b154-f4ed29120015" d="M1519,412.2v6.07c0,32.83-.06,65.66.09,98.49,0,3.54-.9,4.36-4.38,4.33q-32.24-.26-64.49,0c-3.58,0-4.3-1-4.3-4.4q.15-146.74,0-293.47c0-3.58,1-4.32,4.4-4.3q32.25.25,64.49,0c3.62,0,4.39,1,4.27,4.43-.26,7.75-.08,15.51-.08,22.34,3-2.53,6.31-5.18,9.44-8,18.53-17,40.79-22.37,65.13-20.42,27.36,2.2,50.68,13,68.45,34.4,12.83,15.47,20.12,33.49,23.36,53.18,4.43,26.95,3,53.53-7.73,78.86-14.55,34.2-40.57,53.82-77.6,58.44-24.13,3-46.72-.73-66.64-15.71A89.82,89.82,0,0,1,1519,412.2Z" transform="translate(-0.9 -0.87)"/><path class="9fc18bf7-8916-46f0-b154-f4ed29120015" d="M1171.94,219h46.32c8,0,16,.25,24-.11,3.82-.17,5.45,1.05,6.74,4.6q24.4,67.34,49.08,134.58c.44,1.21,1,2.39,1.48,3.64,2-.88,1.81-2.86,2.27-4.29Q1323.56,291,1345,224.51c1.41-4.4,3.34-5.7,7.93-5.64,20.49.3,41,.13,61.5.13h5.42L1402,264.83q-38.43,98.47-76.85,196.95c-6.12,15.68-14.48,29.93-27.09,41.34-14.4,13-31.73,19.15-50.78,20.64-26.33,2.06-50.42-4.25-71.93-20-2.91-2.13-3.22-3.5-1.3-6.59q13.28-21.39,26-43.13c1.83-3.12,2.91-3.31,5.77-1,9.17,7.31,19.47,11.2,31.52,9.28,8.11-1.29,14.06-5.58,18.66-12.12,5.86-8.35,7.69-15.92,3-26.68-29-66.57-57-133.61-85.36-200.5C1173.1,221.85,1172.61,220.64,1171.94,219Z" transform="translate(-0.9 -0.87)"/><path class="9fc18bf7-8916-46f0-b154-f4ed29120015" d="M1736,330.86c0-9.33,0-18.66,0-28,0-8.13-.2-16.26-.3-24.39-8.09-1.11-16.21-.19-24.31-.49a18.45,18.45,0,0,0-3,0c-2.59.33-3.38-.66-3.36-3.3q.19-21,0-42c0-3.07,1.22-3.55,3.84-3.5,7.33.13,14.68-.31,22,.17,4.69.31,5.32-1.39,5.27-5.52-.23-17,0-34-.17-51,0-3.6.49-5.07,4.69-5,21.15.26,42.32.21,63.47,0,3.65,0,4.78.73,4.73,4.6-.23,17.49,0,35-.19,52.48,0,3.53.91,4.42,4.41,4.38,16-.19,32,0,48-.16,3.66,0,5.18.54,5.08,4.77-.32,13.32-.22,26.65,0,40,0,3.22-.75,4.16-4.07,4.13-16.32-.18-32.65,0-49-.17-3.47,0-4.4.81-4.38,4.35.16,26,0,52,.11,78,.08,21,9.68,28.37,29.95,23.11a137.88,137.88,0,0,0,14.17-4.61c2.29-.87,3.41-1.2,4.18,1.78q6,23.11,12.49,46.09c.81,2.85-.67,3.47-2.48,4.41-15.59,8.14-32.34,11.91-49.76,12.88-12.53.7-24.94-.13-36.95-4.22-26.71-9.1-43.8-32.59-44.27-61.33-.26-15.82,0-31.65,0-47.48Z" transform="translate(-0.9 -0.87)"/><path class="306a14dd-2987-4832-8fdd-0a8065322dd0" d="M353.94,365.91c-11.68-8.39-21.71-18.63-31.41-29.1a235.33,235.33,0,0,1-27.58-35.87,186,186,0,0,1-21.18-47.67c-3.2-11.33-7.26-22.4-9.22-34.07a226.38,226.38,0,0,1-3.41-31.06,524.08,524.08,0,0,1,.92-55.87c1.11-14,2.68-28,3.82-42,.63-7.77.82-15.58,1.21-23.37l28.68-1c7.22-2.87,14.56-.65,21.71,0a265.15,265.15,0,0,1,50,9.12c2.77.79,6,1,7.61,4.11-3.53,13-7.64,25.76-10.3,39-3.34,16.59-6.06,33.24-7.87,50.07-2,18.66-3.14,37.35-4.14,56.09-1.3,24.32-1.22,48.64-.42,72.91C353.11,320,354.29,342.94,353.94,365.91Z" transform="translate(-0.9 -0.87)"/><path class="9fc18bf7-8916-46f0-b154-f4ed29120015" d="M1092,255.39c12.26-19.21,28-31.44,48.83-36.72A83.61,83.61,0,0,1,1160,216c2.4,0,3.56.28,3.54,3.18q-.19,30.24,0,60.49c0,3.13-1.25,3.47-3.84,3.32-11.7-.69-23.24-.08-34.45,3.95-21.17,7.61-33.31,24.64-33.31,47,0,34.16-.06,68.32.09,102.48,0,3.6-.66,4.73-4.53,4.69-21.49-.22-43-.17-64.49,0-3.17,0-4.15-.69-4.14-4q.16-107,0-214c0-3.16.66-4.18,4-4.15q32.49.25,65,0c3.19,0,4.21.71,4.14,4.05C1091.85,233.29,1092,243.6,1092,255.39Z" transform="translate(-0.9 -0.87)"/><path class="56a2a4c9-0dcf-447d-a4b6-5345ab4a93a7" d="M375.07,79.05c-13.68-5.14-28-7.69-42.33-9.93a285.75,285.75,0,0,0-37-3.26c12.58-8,25.64-15.29,37.2-24.83,4.73-3.91,9.2-8.17,14.15-11.78,14.75-10.79,28.57-11,43.8-.91,2.9,1.92,5.66,4,8.47,6.08a147.55,147.55,0,0,0-22.65,41.65A19.06,19.06,0,0,1,375.07,79.05Z" transform="translate(-0.9 -0.87)"/><path class="8309d6bb-d669-42bc-837e-b101ddd6e6b2" d="M2011.25,385.34c-23.77,0-39.32-10.08-46.57-28.33-7.39-18.59-7.33-37.44,1.4-55.59,8-16.68,22.08-25,40.38-25.24s33.07,7.57,41.45,24.34c10.05,20.12,9.88,40.9-.22,60.89C2039.46,377.7,2025.19,385.23,2011.25,385.34Z" transform="translate(-0.9 -0.87)"/><path class="8309d6bb-d669-42bc-837e-b101ddd6e6b2" d="M1614,329.66c-.52,14.21-3.44,27.53-12.86,38.57-20.64,24.2-60.39,20.06-74.9-8.28-10.41-20.33-10.26-41.51.34-61.76,9.53-18.2,25.7-25.44,45.8-23.12,18.85,2.18,30.93,13.38,37.53,30.77C1612.89,313.52,1613.86,321.6,1614,329.66Z" transform="translate(-0.9 -0.87)"/></svg>