<svg id="0d746df1-e8b3-4615-926d-05acb2c13651" data-name="Such Layer" xmlns="http://www.w3.org/2000/svg" viewBox="0 0 1922 2720"><defs><style>.aaa5b496-fa73-4bda-9d83-e414879f257e{fill:#53a646;}.\39 ac3b32a-3088-4d5e-aa52-06a9295d1248{fill:#70be44;}.\34 29cb136-4f1b-4765-8e1f-dac8de3dd8ad{fill:#fefefe;}.fc74379f-a376-437b-9170-24792919428d{fill:#fff;}.\39 d629c84-c47b-4254-86db-72544a881cf4{fill:#122112;}.\37 8a2d102-dc55-4de0-b801-3a9d4589b9ff{fill:#f5d14f;}.\34 dcf074b-ed6c-446a-beec-b25daf68f140{fill:#d0e5b6;}.f881d478-3179-44fd-9d63-e1c7317e144a{fill:#fff2d2;}.\32 0ef4a6f-33e2-4bca-925d-bf83334ade65{fill:#f0f7e7;}.b0b8ecf9-50ee-48cd-a60d-36e9c282cbb1{fill:#c3dab2;}.\37 3aeed84-2635-471e-a8fd-cce0cd3789da{fill:#7bb75c;}.\33 106b1f4-c210-4090-a905-4ae8773217ce{fill:#ffe49d;}.f0ec8c99-c444-4833-aa4d-9725b13e2475{fill:#c9deba;}.\35 f5294d7-23c2-4f0a-b266-2c510a7136eb{fill:#dddc86;}.\37 89ecab7-6504-4972-9c5d-07e71fe0b923{fill:#8ec072;}.\32 bf9e69d-3008-4dce-9e27-a974468d0e37{fill:#e7f1df;}.\38 8d78796-9995-45de-af25-eb71288ade92{fill:#e4efd9;}.b827d861-70dd-4a90-b0a8-1f4050975fa7{fill:#a1c88a;}.f3bb2df2-8fa1-434d-bee5-31a7976856cd{fill:#9fd07e;}.\36 177c723-e1d9-48c3-98f4-fd945c7e7bc7{fill:#b6da9a;}.\37 96641f1-823d-4e40-8097-d1df5c87b3b8{fill:#5f645a;}.\37 f86bf4f-3d62-447b-af6d-5a988107f5de{fill:#d4e9c4;}.\32 e4b89b8-e43a-4ac3-b55c-a5f2e3405169{fill:#daebca;}.e662f436-cc13-46c8-a77a-8399ffb82ec4{fill:#b9bab5;}.bccae19d-e293-4888-a74a-386a4bc0b957{fill:#63675d;}.\38 a32b0a4-dd73-49f2-841a-51e1adcca897{fill:#aeafaa;}.a19bc192-f37b-4f31-89fd-68b0bfe54faf{fill:#9ecd58;}.bcf30f9c-7400-42c6-92b8-e87b0fdbf053{fill:#ffd041;}.f588b30f-177b-449b-a81d-f04f3ed2695e{fill:#fdd044;}</style></defs><title>Untitled-1</title><path class="aaa5b496-fa73-4bda-9d83-e414879f257e" d="M1924,1150v54c-2.14,3.87-.5,8.07-1,12.08q0,3.15,0,6.29,0,5.58,0,11.15,0,3.18,0,6.36c.84,68.64-13.18,135-31.24,200.68a917.08,917.08,0,0,1-64.19,166.72c-38.76,77.58-86.69,149.09-144.93,213.5-54.48,60.25-113.45,115.45-181.64,160.15a1025.83,1025.83,0,0,1-223.24,110.79c-64.4,22.61-130.25,38.53-198,46.77-38.45,4.68-77,4.46-115.68,4.62-136,.55-265.75-28-390.27-81.83-66.35-28.71-128.89-63.91-185.57-109-11.42-9.09-23.46-17.62-33-28.93-8.08-10.63-18.58-19-26.93-29.45a143.32,143.32,0,0,1-22.58-38.69c-10.16-26.72-1.52-51.34,22.8-66.5,18.12-11.29,38.37-16.9,58.87-21.51,31.93-7.18,64.48-9.73,97-12.67,44.43-4,89-6,133.46-9.24,46.82-3.46,93.63-6.85,140.24-12.52,70.22-8.54,138.37-24.76,202.16-56.39,84.62-42,141-108.65,172.38-197.16C1150.19,1429.6,1159,1378.11,1165,1326c4.35-37.73,5.92-75.63,8-113.52-1-27.31-.46-54.63-.43-81.93,0-50.95-3.65-101.74-5.81-152.6-.18-4.33-.24-8.66-.24-13,0-31.65.27-63.29-.06-94.94a2631.16,2631.16,0,0,1,11.63-274.22c7.89-83.7,20.16-166.64,40.5-248.26,7.09-28.43,14.86-56.71,25.34-84.13,10.91-27.37,21.89-54.68,35.4-81,13.26-25.84,30-49.2,47.2-72.35,17.29-22.19,35.91-43.05,60.3-57.76,37.24-22.46,73-20.51,108.24,5.23,26.53,19.38,46.45,44.77,65,71.33,27.16,38.87,50,80.26,71.88,122.31,57,109.84,106.93,222.93,153.31,337.57C1829.41,697.9,1869,808.64,1896,923.53c11.8,50.33,21.42,101.06,25.74,152.62a343.29,343.29,0,0,1,1.27,43.9q0,3.18,0,6.35,0,6.4,0,12.81C1923.46,1142.79,1921.92,1146.57,1924,1150Z" transform="translate(-2 -2)"/><path class="9ac3b32a-3088-4d5e-aa52-06a9295d1248" d="M1175.82,1213.76c-1,20.53-1.21,41.09-3.55,61.56-1.05,9.21-.86,18.5-1.89,27.79-1.95,17.44-3.88,34.87-6.07,52.28a681.91,681.91,0,0,1-12.35,68.46c-9.1,39.37-22,77.42-41.43,113a362.45,362.45,0,0,1-37.33,55.25c-6.77,8.29-14.28,15.77-21.67,23.41-19.55,20.24-42.12,36.56-66.26,50.79-36.63,21.6-76,36.48-116.79,48.13a696.88,696.88,0,0,1-76.72,16.91c-17.91,3-36.07,5-54.18,7-17.1,1.87-34.33,2.62-51.37,5.36-8.14,1.31-16.58,1.43-24.76,1.76-13.62.54-27.25,1.71-40.7,3-13.86,1.35-27.95-.26-41.61,3.2a9.71,9.71,0,0,1-3,.23c-17-1.13-33.86,1.64-50.74,2.62-12.12.7-24.45.74-36.63,2.94-9,1.63-18.46,1.43-27.72,2.31-32.39,3.08-64.56,6.94-95.84,16.54a181.38,181.38,0,0,0-30.46,12.24c-17.08,8.85-28.17,22.18-30.29,41.65-1.1,10.09,2,19.72,6.1,28.9,8.44,18.73,20.37,35,34.86,49.46,4.4,4.41,10,7.92,12.38,14.11-5.2,1.83-8-2.15-11.21-4.81a945.35,945.35,0,0,1-124.44-125.29A956.61,956.61,0,0,1,24.27,1387.73,1018.68,1018.68,0,0,1,5.62,1268.32,315.49,315.49,0,0,1,4,1225.41c0-27.46-1.69-54.88-1-82.32.07-3.6-.18-7.21.2-10.81,1.74-15.13-.14-30.4,1.86-45.52A918.29,918.29,0,0,1,31.64,940.1c4.81-18.26,11.05-36.1,15.5-54.44,8.66-26.95,18.71-53.42,29.9-79.4,44-102.17,96.17-200,158.34-292.24a2144,2144,0,0,1,157-205.68c38-43.85,77-86.66,119.14-126.52C567.65,128.63,625.61,77.5,692.75,38.06a407.33,407.33,0,0,1,57.44-28,104.75,104.75,0,0,1,33-7.07h4.22c2.19-.3,4.59.76,6.56-1h14c2.15,1.81,4.72.7,7.1,1,1.57,0,3.14,0,4.71,0,19.78,2.55,33.72,13.27,42.54,30.8C880.26,69.43,889.62,107,891.53,147c1.19,25,2.14,49.79-.56,74.65,1,27-2.42,53.86-4.41,80.73-2.93,39.5-6.25,79-9.73,118.42a1633.77,1633.77,0,0,0-5.42,187.65c1.81,67.5,10.65,134.13,31.94,198.63,10.76,32.58,19.2,65.92,32.44,97.69,27.57,66.16,66.36,125.29,112.45,179.83,34.69,41.06,72.88,78.66,113.34,114C1166.8,1203.14,1172.79,1207.1,1175.82,1213.76Z" transform="translate(-2 -2)"/><path class="429cb136-4f1b-4765-8e1f-dac8de3dd8ad" d="M5.71,1228.09c6,112.44,30.27,220.74,74.29,324.44q91.68,216,272.12,366.2c1.77,1.48,3.78,2.65,5.68,4a681.78,681.78,0,0,0,104,77.43c101.79,61.16,211.18,102.21,327.83,124.33,81,15.36,162.86,18.88,244.82,14.54,121-6.39,234.86-40.84,344.19-92.15,256-120.15,454.62-366.27,519.76-644a1040.12,1040.12,0,0,0,23-142.79c.61-6.62.6-13.31.87-20,.52-1,1.07-1.06,1.65-.06V2722H802a2.13,2.13,0,0,1,.1-2.82c2.2-2.2,5.12-3.06,7.93-4.06,24.16-8.6,40.72-25.62,50-48.8,31.35-78.59,61.9-157.5,92.51-236.39,2.58-6.64,1.15-9.11-6.06-9q-24,.34-48,0c-6.74-.11-10.45,2.54-12.33,9-10.61,36.48-24,72.06-35.09,108.39-1.26,4.14-2.31,8.37-3.93,12.38-1.43,3.54-1.63,8.92-6.39,9.1s-5.77-4.92-7-8.6c-2.81-8.2-6-16.27-9-24.39-11.64-31.57-23.26-63.14-34.57-94.82-3-8.3-7.56-11.38-16.2-11.1-16,.5-32,.41-48,0-7.56-.18-8.28,2.1-5.51,8.61,23.17,54.58,46.17,109.23,69.45,163.77,4.05,9.5,6.89,19.8,12.29,28.38,11.73,18.64-12.88,45.68-32.56,42.22-6.59-1.16-13.21-2.24-18.93-5.94-5.51-3.56-9.09-1.92-12.22,3.35-6.13,10.31-12.2,20.66-18.52,30.84-3.17,5.11-2,8.57,2.93,11.53a123.72,123.72,0,0,0,20.64,10c3.72,1.37,7.72,2.27,10.51,5.47A2.27,2.27,0,0,1,754,2722H2V1218a1.84,1.84,0,0,1,2.53.07C5.72,1221.32,4.09,1224.9,5.71,1228.09Z" transform="translate(-2 -2)"/><path class="fc74379f-a376-437b-9170-24792919428d" d="M783.92,3.78C753.8,9.65,726.3,22.15,699.86,37.25c-45.05,25.72-86,57.15-125.12,91C465.77,222.44,371.62,330.14,286.5,446q-122.69,167-205.14,357.07c-11.35,26.32-20.27,53.57-31.21,80-15.29,42.51-28.65,85.56-35.84,130.3-2.16,13.42-3.45,27-6,40.34-2.23,3.33.07,9.47-6.3,10.26V2H784q1.07.64.68,1.22C784.43,3.6,784.18,3.78,783.92,3.78Z" transform="translate(-2 -2)"/><path class="fc74379f-a376-437b-9170-24792919428d" d="M888.26,221.59a637.93,637.93,0,0,0,0-74.65c-1.94-30.63-6.14-60.72-18.93-89-1.22-2.71-2-5.61-3-8.42C858.09,26,843.11,9.59,818.08,3.8q-1.13-.55-.79-1.17c.23-.42.46-.63.71-.63H1924V1120q-.88,1.48-1.63-.07c-4.78-95.29-24.73-187.83-51.3-279.09-32-110-73.24-216.77-118-322.16-41.37-97.42-84.95-193.83-134.77-287.28-21.94-41.16-45.33-81.45-73.67-118.65-12.13-15.93-25.16-31.05-40.4-44.15a138.6,138.6,0,0,0-29.72-20.07q-35.34-17.15-71.41-1.5c-17,7.42-31.39,18.67-44.76,31.36-11.14,10.57-20.53,22.69-30.61,34.2-5.37.85-8.61-2.88-12.19-5.75-16-12.8-33.18-23.64-52.58-30.28-33.8-11.57-65.53-6-95.59,12.59-16,9.87-29.63,22.57-43.69,34.8-32,27.86-67.12,51.4-103.53,73.05C1005.3,205.84,991,215.6,975,222.67c-11,1.66-22,.7-33,.86-12.32.18-24.63-.14-36.92,1.54C899.36,225.86,893.08,226.69,888.26,221.59Z" transform="translate(-2 -2)"/><path class="9d629c84-c47b-4254-86db-72544a881cf4" d="M753.91,2720.22c-15.31-3.93-29.31-10.4-41.61-20.93l30.3-50.18c8.13,5.41,15.38,10.61,24.77,11.67,13.32,1.51,23.27-3,30.48-14.42,4.73-7.47,5.8-14.06,2-22.9-28.13-65-55.61-130.28-83.2-195.51-1.27-3-3.32-5.82-3.11-9.38,2.3-2.08,5.07-1.07,7.58-1.09,19.67-.1,39.34.19,59-.2,6.06-.12,8.59,2,10.61,7.58,15.18,42.24,30.71,84.35,46.24,126.46.88,2.39.83,5.4,4.26,7.4L858,2507.26q13.65-41.71,27.28-83.42c1-3.14,1.28-6.48,6-6.45,22.63.14,45.26.06,67.82.06.78,3.93-1.16,6.47-2.21,9.15q-44.64,114.82-89.42,229.58a161.87,161.87,0,0,1-10,21.72c-12.52,21.88-30.39,36.76-55.36,42.36-1.06.83-2.31.68-3.53.71-1.58.11-3.3-.37-4.6,1H764c-1.87-1.75-4.19-.73-6.29-1C756.4,2720.95,755,2721.15,753.91,2720.22Z" transform="translate(-2 -2)"/><path class="78a2d102-dc55-4de0-b801-3a9d4589b9ff" d="M7.66,1085.88c-1.47,15.44-.78,31-3.45,46.4C2.95,1132,2.78,1130.72,2,1130v-42c2.14-4,.5-8.29,1-12.41.52-2.24-1.39-5.87,3.28-5.75C9.68,1074.93,5.05,1080.71,7.66,1085.88Z" transform="translate(-2 -2)"/><path class="4dcf074b-ed6c-446a-beec-b25daf68f140" d="M5.71,1228.09c-2.46-3-1.2-6.68-1.92-10-2.18-4.5.79-9.64-1.79-14.09v-62c.68-.94,1.4-1,2.14-.07.11,5.28.41,10.57.31,15.85-.35,19.84.72,39.64,1.51,59.45C6.11,1220.84,5.81,1224.47,5.71,1228.09Z" transform="translate(-2 -2)"/><path class="f881d478-3179-44fd-9d63-e1c7317e144a" d="M5.71,1069.46c-1.61,1.88-1.47,4.24-1.79,6.48-.61,1-1.25,1-1.92.06v-12c3.48-2.53.57-7.43,3.74-10.08C10.2,1059.11,8.54,1064.29,5.71,1069.46Z" transform="translate(-2 -2)"/><path class="20ef4a6f-33e2-4bca-925d-bf83334ade65" d="M2,1204c3.15,4.37,1.55,9.35,1.79,14.09L2,1218Z" transform="translate(-2 -2)"/><path class="b0b8ecf9-50ee-48cd-a60d-36e9c282cbb1" d="M1922.38,1139.68c-.37-4.59-.82-9.17-.07-13.77q.92-1.3,1.69.09v14C1923.24,1141,1922.69,1140.92,1922.38,1139.68Z" transform="translate(-2 -2)"/><path class="73aeed84-2635-471e-a8fd-cce0cd3789da" d="M1922.16,1216.16c.18-4.12-1.49-8.52,1.84-12.16v12C1923.46,1216.9,1922.85,1217,1922.16,1216.16Z" transform="translate(-2 -2)"/><path class="3106b1f4-c210-4090-a905-4ae8773217ce" d="M2,1076q1-.06,1.92-.06c0,4.12,1.32,8.46-1.92,12.06Z" transform="translate(-2 -2)"/><path class="f0ec8c99-c444-4833-aa4d-9725b13e2475" d="M1922.34,1234.09q0-6-.06-11.94c.48-1.07,1.05-1.17,1.72-.15v12C1923.49,1234.95,1922.94,1234.93,1922.34,1234.09Z" transform="translate(-2 -2)"/><path class="5f5294d7-23c2-4f0a-b266-2c510a7136eb" d="M4.14,1141.93,2,1142q0-6,0-12l2.21,2.27Q4.18,1137.1,4.14,1141.93Z" transform="translate(-2 -2)"/><path class="789ecab7-6504-4972-9c5d-07e71fe0b923" d="M1922.38,1139.68a3.49,3.49,0,0,1,1.62.32v10C1921,1146.94,1922.08,1143.25,1922.38,1139.68Z" transform="translate(-2 -2)"/><path class="2bf9e69d-3008-4dce-9e27-a974468d0e37" d="M1922.34,1234.09q.83,0,1.66-.09v6q-.83.07-1.65.06Q1922.34,1237.07,1922.34,1234.09Z" transform="translate(-2 -2)"/><path class="88d78796-9995-45de-af25-eb71288ade92" d="M1924,1126l-1.69-.09q0-3,.06-6a8.61,8.61,0,0,1,1.63.07Z" transform="translate(-2 -2)"/><path class="b827d861-70dd-4a90-b0a8-1f4050975fa7" d="M1924,1222l-1.72.15q-.06-3-.13-6a10.51,10.51,0,0,1,1.85-.15Z" transform="translate(-2 -2)"/><path class="f3bb2df2-8fa1-434d-bee5-31a7976856cd" d="M814.14,3.85c-2.32.31-4.55.29-6.14-1.85h6q1,.54.73,1.18T814.14,3.85Z" transform="translate(-2 -2)"/><path class="6177c723-e1d9-48c3-98f4-fd945c7e7bc7" d="M794,2c-1.61,2.07-3.82,2.06-6.11,1.77q-.93-.65-.57-1.22c.23-.37.46-.55.68-.55Z" transform="translate(-2 -2)"/><path class="796641f1-823d-4e40-8097-d1df5c87b3b8" d="M757.81,2720.18c2.37-.44,4.55-.22,6.19,1.82h-6q-1-.51-.74-1.15C757.43,2720.4,757.62,2720.18,757.81,2720.18Z" transform="translate(-2 -2)"/><path class="7f86bf4f-3d62-447b-af6d-5a988107f5de" d="M814.14,3.85A4.87,4.87,0,0,1,814,2h4q0,.9.08,1.8Z" transform="translate(-2 -2)"/><path class="2e4b89b8-e43a-4ac3-b55c-a5f2e3405169" d="M788,2a8.29,8.29,0,0,1-.11,1.77h-4Q784,2.89,784,2Z" transform="translate(-2 -2)"/><path class="e662f436-cc13-46c8-a77a-8399ffb82ec4" d="M757.81,2720.18A3.39,3.39,0,0,1,758,2722h-4a8.24,8.24,0,0,0-.09-1.78Z" transform="translate(-2 -2)"/><path class="bccae19d-e293-4888-a74a-386a4bc0b957" d="M794,2722c.91-1.79,2.44-2.07,4.23-1.73q.79.69.42,1.23t-.65.5Z" transform="translate(-2 -2)"/><path class="8a32b0a4-dd73-49f2-841a-51e1adcca897" d="M798,2722a5.72,5.72,0,0,1,.23-1.74h3.91A16.21,16.21,0,0,0,802,2722Z" transform="translate(-2 -2)"/><path class="a19bc192-f37b-4f31-89fd-68b0bfe54faf" d="M888.26,221.59a36.6,36.6,0,0,0,5.92.4c27.76-2.54,55.61-2,83.43-2.61,11.3-4,23-3.18,34.6-2.49,74.26,4.46,147.4,15.81,218.94,36.58,5.94,1.73,12.57,2.47,16.55,8.29a1070.6,1070.6,0,0,0-30.3,105.33c-7.64,33.3-14.05,66.84-19.67,100.56-4.42,26.5-8,53.11-11.2,79.74-1.94,16.1-3.91,32.25-4.83,48.51-1,18.51-3.68,36.93-5.35,55.42-1,10.57-1.29,21.23-1.78,31.8-.73,15.92-1.94,31.83-2.62,47.76-3.35,78.52-2.13,157.07-1.67,235.61.13,21.91.49,44,2.2,65.75,4.76,60.48,3.58,121,3.32,181.51-9.16-4.44-15.82-12.15-23.25-18.64a1088.05,1088.05,0,0,1-80.76-78.73,790.22,790.22,0,0,1-92.71-120.73c-32-51.43-55.52-106.5-71.59-165-7.12-25.92-16.5-51.22-22.11-77.6-5-23.66-8.79-47.5-11.75-71.54-2.35-19.1-2.4-38.36-5.42-57.36a45,45,0,0,1-.17-7c0-31.64.24-63.29-.14-94.93-.24-19.64,2-39.14,2.55-58.74.53-18.49,2.2-37.05,3.77-55.54,2.08-24.43,3.82-48.9,6.2-73.29,1.86-19.11,3.56-38.28,5-57.39C886.87,258.81,889,240.24,888.26,221.59Z" transform="translate(-2 -2)"/><path class="bcf30f9c-7400-42c6-92b8-e87b0fdbf053" d="M1247.7,261.76A1002,1002,0,0,0,1137.65,235q-30.78-5.55-61.88-9.13c-32.62-3.81-65.34-5.77-98.16-6.5,15.95-9.61,31.95-19.14,47.84-28.85C1065,166.37,1103,140,1137,108.26a178.63,178.63,0,0,1,33.94-24.52c37.19-21.17,74.62-21.24,112.44-1.61,16.07,8.34,30.2,19.43,44.39,30.46-10.31,15.82-22.52,30.31-32.2,46.59a562.82,562.82,0,0,0-43.77,92.45C1250.51,255,1249.06,258.39,1247.7,261.76Z" transform="translate(-2 -2)"/><path class="f588b30f-177b-449b-a81d-f04f3ed2695e" d="M5.71,1069.46q0-7.77,0-15.54C11.34,998,23.59,943.73,45.57,891.84c1.28-3,2-6.38,4.58-8.74.8,4.86-1.41,9.15-2.77,13.56a978,978,0,0,0-35.62,159.57c-1.33,9.89-2.73,19.76-4.1,29.64C4.3,1080.73,7,1074.86,5.71,1069.46Z" transform="translate(-2 -2)"/><path class="9d629c84-c47b-4254-86db-72544a881cf4" d="M364.34,2529.08c-12.07,13.39-23.35,26-34.76,38.5-2.39,2.62-1.7,5.61-1.71,8.5-.07,18.66,0,37.33-.05,56,0,7.61-.12,7.72-7.55,7.74-19.66.06-39.33,0-59,0-9.84,0-9.12.62-9.12-9.21q0-107,0-214c0-19,0-38,0-57,0-7.31.13-7.46,6.79-7.49q31-.11,62,0c6.72,0,6.84.17,6.85,7.42q.07,50.49,0,101c0,2.89,0,5.79,0,10.92,4-4.24,6.66-6.92,9.17-9.73,30.93-34.48,61.92-68.91,92.64-103.58,3.89-4.39,7.7-6.25,13.59-6.18,25.65.32,51.3.14,77.5.14-.28,4.4-3.61,6.44-5.85,8.95q-45.65,51-91.46,102c-7.41,8.25-7.42,8.25-1,17.83q50.2,74.58,100.37,149.17c1.79,2.67,4.24,5.06,4.93,9-2.46,1.33-5.12.72-7.58.73-24,.06-48-.2-72,.19-6.67.11-10.72-1.82-14.49-7.54-21.63-32.8-43.72-65.29-65.66-97.89Z" transform="translate(-2 -2)"/><path class="9d629c84-c47b-4254-86db-72544a881cf4" d="M1061.78,2443.92c1.89-2.18,3.63-4.53,5.7-6.52a76,76,0,0,1,49.15-21.69c14.76-1,29.33.15,43.37,5,27.35,9.49,46.88,27.81,57.74,54.46,14.58,35.79,14.82,72.23.06,108-23.79,57.62-85.68,66.93-123,53.22-12.87-4.73-20.09-9.57-33.61-22.87-2.47,2.09-1.3,4.92-1.3,7.3-.1,30.32,0,60.65-.08,91,0,7.94-.1,8-8.26,8-19,0-38,0-57,0-9.21,0-8.42.14-8.42-8.92q0-64,0-128,0-77,0-154c0-2.33.14-4.67,0-7-.24-3.53,1.5-4.67,4.76-4.59,4.66.1,9.33,0,14,0,15.66,0,31.32,0,47,0,7.87,0,7.89.12,7.95,8.33,0,5.65,0,11.3,0,17Z" transform="translate(-2 -2)"/><path class="9d629c84-c47b-4254-86db-72544a881cf4" d="M1547.48,2641.88c-20.13-.27-39.74-3.25-58.21-11.72-35.5-16.27-55.57-44.07-61.57-82.47a123.58,123.58,0,0,1,3.34-54.33c9.92-34,31.95-57.2,65-69.2,34.35-12.47,69.4-12.68,103.55.24,41.06,15.53,63.73,46.15,68.79,89.85a121.45,121.45,0,0,1-3.56,47.45c-11.83,41.8-40.47,65.89-81.74,76.1A138.93,138.93,0,0,1,1547.48,2641.88Z" transform="translate(-2 -2)"/><path class="9d629c84-c47b-4254-86db-72544a881cf4" d="M1396.74,2576c4.39,16,8.36,31.08,12.73,46.05,1.47,5-.47,7.23-4.71,9.19a120.7,120.7,0,0,1-34.33,10.11c-12.57,1.74-25.34,2.27-37.86,0-34.79-6.37-55.86-31.51-56.32-67.22-.35-27.32-.08-54.65-.09-82,0-2.67,0-5.33,0-8-.13-7.43-.15-7.47-7.76-7.55-5.66-.06-11.34-.2-17,0-4.13.18-5.94-1-5.85-5.54q.37-18.49,0-37c-.1-4.65,1.12-6.66,6.12-6.35,6.31.39,12.67-.15,19,.17,4.52.23,5.61-1.7,5.57-5.82-.17-14.66-.06-29.32-.06-44,0-2.33.09-4.67,0-7-.14-3.15.75-5,4.4-5,21.33.08,42.66.12,64,0,5.11,0,4.94,3.09,4.93,6.58q0,23.49,0,47c0,8,.11,8.11,8.17,8.14,14,0,28,.18,42-.08,4.89-.09,7.19.91,7,6.48-.39,12-.43,24,0,36,.22,5.72-2.24,6.5-7,6.43-14.33-.22-28.66-.13-43-.05-7,0-7.15.15-7.17,7.22-.06,25.66,0,51.32,0,77a47,47,0,0,0,.28,5c1.32,12.2,8.82,18.44,21,17.39C1379.48,2582.42,1387.56,2579.32,1396.74,2576Z" transform="translate(-2 -2)"/><path class="9d629c84-c47b-4254-86db-72544a881cf4" d="M632.55,2450.18c4.09-.79,4.71-3.77,6.26-5.7,14.83-18.43,34.32-27.87,57.57-30.08,7.35-.7,7.63-.48,7.67,6.32.09,18.31-.1,36.62.12,54.93.06,4.81-1.36,6.39-6.27,6-11.37-.8-22.59.17-33.37,4.35-20.1,7.79-31.85,24.45-31.94,46.05-.13,32,0,63.92,0,95.87,0,2.33-.08,4.66,0,7,.11,3.12-.77,4.94-4.43,4.93q-32-.14-63.91,0c-3.35,0-5-1.12-4.79-4.56.1-2,0-4,0-6q0-100.87,0-201.73c0-1.66.14-3.34,0-5-.36-3.82,1.16-5.24,5.08-5.21q31.46.21,62.92,0c3.82,0,5.29,1.2,5.2,5.12C632.41,2431.49,632.55,2440.48,632.55,2450.18Z" transform="translate(-2 -2)"/><path class="fc74379f-a376-437b-9170-24792919428d" d="M1059.84,2531.62c0-16.37,2.61-27.89,9.33-38.23,17.12-26.36,56.35-27.15,74.62-1.55,13.65,19.14,14,51.24.82,70.72-18.6,27.45-60.19,26-76.88-2.61A58.31,58.31,0,0,1,1059.84,2531.62Z" transform="translate(-2 -2)"/><path class="fc74379f-a376-437b-9170-24792919428d" d="M1500.19,2530.57a68.9,68.9,0,0,1,3.38-22.86c6.89-21,23.79-33.45,44.68-33,21.35.44,37.56,12.92,44,34a68.87,68.87,0,0,1,.19,40.25c-6.51,22.18-23.2,35.05-45.21,34.9-21.61-.15-38.81-13.84-44.56-35.87C1501.05,2541.9,1499.73,2535.66,1500.19,2530.57Z" transform="translate(-2 -2)"/></svg>