<?xml version="1.0" standalone="no"?>
<!DOCTYPE svg PUBLIC "-//W3C//DTD SVG 20010904//EN"
 "http://www.w3.org/TR/2001/REC-SVG-20010904/DTD/svg10.dtd">
<svg version="1.0" xmlns="http://www.w3.org/2000/svg"
 width="512.000000pt" height="512.000000pt" viewBox="0 0 512.000000 512.000000"
 preserveAspectRatio="xMidYMid meet">
<metadata>
Created by potrace 1.11, written by Peter Selinger 2001-2013
</metadata>
<g transform="translate(0.000000,512.000000) scale(0.100000,-0.100000)"
fill="#000000" stroke="none">
<path d="M2044 5096 c-69 -25 -126 -57 -229 -127 -152 -102 -400 -330 -555
-508 -30 -35 -63 -73 -74 -85 -10 -12 -35 -41 -55 -66 -20 -25 -41 -49 -47
-55 -50 -43 -315 -429 -417 -605 -221 -384 -347 -725 -391 -1063 -12 -95 -14
-442 -3 -537 24 -197 68 -379 139 -570 36 -98 177 -380 189 -380 5 0 9 -6 9
-12 0 -15 100 -156 175 -248 90 -110 207 -225 340 -335 26 -22 53 -45 60 -51
6 -7 55 -41 108 -77 278 -187 650 -322 1002 -364 78 -10 494 -10 565 -1 60 8
101 15 140 24 14 3 34 8 45 10 306 58 722 260 980 476 391 327 655 750 780
1248 9 36 18 81 21 100 3 19 7 42 9 50 13 44 17 129 19 353 3 297 -5 378 -58
624 -24 110 -131 467 -155 518 -6 11 -17 40 -25 65 -24 76 -141 365 -211 525
-96 216 -254 542 -301 622 -10 17 -34 57 -53 90 -54 92 -135 197 -189 243
-128 110 -248 98 -378 -37 l-62 -64 -28 24 c-75 63 -188 93 -262 71 -51 -14
-115 -52 -162 -94 -60 -55 -182 -143 -260 -189 -41 -25 -82 -50 -90 -57 -9 -8
-57 -14 -122 -17 l-108 -4 -1 101 c0 56 -2 110 -3 121 -16 129 -64 248 -112
280 -44 28 -154 29 -230 1z"/>
</g>
</svg>
